<svg width="72" height="97" viewBox="0 0 72 97" fill="none" xmlns="http://www.w3.org/2000/svg">
<path fill-rule="evenodd" clip-rule="evenodd" d="M15.6302 0H0V65.9107H16.2894C21.4367 65.9107 25.3285 64.5925 27.965 61.956C30.6642 59.2568 32.0138 55.365 32.0138 50.2804V44.6309C32.0138 37.2238 29.4401 32.6415 24.2928 30.8839V30.6955C26.5526 29.754 28.216 28.216 29.2832 26.0818C30.4131 23.9475 30.978 21.1856 30.978 17.7959V15.1595C30.978 10.0121 29.754 6.21443 27.3058 3.76633C24.8577 1.25544 20.9659 0 15.6302 0ZM19.0199 25.2344C18.0156 26.3015 16.4777 26.8351 14.4062 26.8351H10.3574V9.41581H15.3478C17.1682 9.41581 18.4864 9.94937 19.3024 11.0165C20.1812 12.0836 20.6206 13.8099 20.6206 16.1952V19.8674C20.6206 22.3782 20.0871 24.1672 19.0199 25.2344ZM20.3381 55.0825C19.4593 56.0241 18.1097 56.4949 16.2894 56.4949H10.3574V36.2509H14.9711C17.3565 36.2509 19.0513 36.8472 20.0557 38.0399C21.1228 39.1698 21.6564 41.2412 21.6564 44.2543V49.9979C21.6564 52.3833 21.217 54.0781 20.3381 55.0825ZM54.494 30.9608H44.1366V96.8715H71.5366V87.4557H54.494V30.9608Z" fill="#5200FF"/>
</svg>
