<svg width="30" height="55" viewBox="0 0 30 55" fill="none" xmlns="http://www.w3.org/2000/svg">
<path d="M1.46338 7.01538H7.38831C9.41087 7.01538 10.8862 7.49128 11.8142 8.44308C12.7422 9.37108 13.2062 10.8107 13.2062 12.7618V13.7612C13.2062 15.0462 12.992 16.0931 12.5637 16.9022C12.1592 17.7112 11.5286 18.2942 10.672 18.6511V18.7225C12.6232 19.3887 13.5988 21.1257 13.5988 23.9335V26.0751C13.5988 28.0025 13.0872 29.4777 12.064 30.5009C11.0646 31.5003 9.58933 32 7.63815 32H1.46338V7.01538ZM6.92431 17.1877C7.70954 17.1877 8.29251 16.9854 8.67323 16.5809C9.07774 16.1764 9.28 15.4983 9.28 14.5465V13.1545C9.28 12.2503 9.11344 11.5959 8.78031 11.1914C8.47097 10.7869 7.97128 10.5846 7.28123 10.5846H5.38954V17.1877H6.92431ZM7.63815 28.4308C8.32821 28.4308 8.83979 28.2523 9.17292 27.8954C9.50605 27.5147 9.67262 26.8722 9.67262 25.968V23.7908C9.67262 22.6486 9.47036 21.8634 9.06585 21.4351C8.68513 20.983 8.04267 20.7569 7.13846 20.7569H5.38954V28.4308H7.63815Z" fill="#5200FF"/>
<path d="M18.1942 18.1692H22.1203V39.5846H28.5806V43.1538H18.1942V18.1692Z" fill="#5200FF"/>
</svg>
